<svg width="40" height="40" viewBox="0 0 40 40" fill="none" xmlns="http://www.w3.org/2000/svg">
<path d="M16.2226 28.8149C14.05 28.8149 11.8999 28.2381 10.0194 27.1368C9.77969 27.0169 9.61487 26.7397 9.62985 26.4475C9.65233 26.0205 10.0119 25.6984 10.424 25.7208C11.7969 25.7208 13.1101 25.5383 14.3571 24.9192C13.0611 24.3948 12.0497 23.316 11.6152 21.945C11.5487 21.7125 11.5997 21.4723 11.765 21.2932C10.7087 20.3867 10.0869 19.0457 10.1018 17.6148C10.0869 17.5473 10.1093 17.3975 10.1842 17.2701C10.2966 17.0679 10.4989 16.948 10.7162 16.933C10.3416 16.2288 10.1393 15.4422 10.1468 14.633C10.1468 13.794 10.3715 12.9624 10.7911 12.2357C10.821 12.1832 10.9034 12.0933 10.9484 12.0634C11.2406 11.8461 11.6526 11.906 11.8699 12.1907C13.6604 14.3783 16.2825 15.8093 19.0994 16.1389C19.077 15.6669 19.1219 15.1874 19.2343 14.7229C19.6388 13.1497 20.845 11.8911 22.3883 11.4191C22.8603 11.2692 23.3548 11.1943 23.8567 11.1868C25.0329 11.1569 26.1342 11.5689 27.0182 12.3181C27.0707 12.363 27.1381 12.3556 27.2055 12.363C27.8573 12.1907 28.539 11.9135 29.1684 11.5389C29.3257 11.4565 29.4905 11.4341 29.6478 11.4715C29.9999 11.5614 30.2172 11.9135 30.1348 12.2656C30.0374 12.5953 29.9025 12.9024 29.7452 13.1946C29.8468 13.1438 29.9633 13.1218 30.0748 13.1497C30.2022 13.1572 30.3221 13.2021 30.427 13.2845C30.7116 13.5018 30.7566 13.9063 30.5393 14.191C30.0524 14.9102 29.4455 15.562 28.7488 16.1239C28.6739 16.1838 28.6289 16.2737 28.6289 16.3711C28.6289 17.885 28.353 19.3895 27.8198 20.8062C27.2729 22.2671 26.4788 23.6082 25.4449 24.7769C24.3661 26.0055 23.0701 26.9795 21.5867 27.6762C19.8975 28.444 18.0748 28.8149 16.2226 28.8149ZM16.2601 27.9684C17.9607 27.9983 19.6688 27.6237 21.2046 26.9195C22.5756 26.2827 23.7818 25.3762 24.7857 24.2375C26.684 22.0889 27.7599 19.2451 27.7599 16.3786C27.7599 16.019 27.9172 15.6894 28.2019 15.4721C28.6664 15.0975 29.0859 14.678 29.453 14.2135C29.1908 14.3034 28.9211 14.3783 28.6514 14.4457C28.4641 14.4907 28.2768 14.4008 28.1794 14.236C28.0895 14.0712 28.1195 13.8614 28.2544 13.7265C28.6065 13.3819 28.8987 12.9774 29.1009 12.5353C28.539 12.82 27.9472 13.0448 27.3254 13.1946C27.228 13.2171 27.1381 13.2171 27.0557 13.2096C26.8309 13.2021 26.6137 13.1122 26.4414 12.9699C25.7221 12.3555 24.7932 12.0184 23.8417 12.0409C23.4222 12.0484 23.0101 12.1158 22.6131 12.2357C21.347 12.6178 20.358 13.6516 20.0284 14.9327C19.916 15.3897 19.8861 15.8617 19.931 16.3337C19.9762 16.4964 19.9506 16.7112 19.8261 16.8356C19.7138 16.9555 19.5564 17.0304 19.3916 17.0304C16.2675 16.7757 13.3682 15.2923 11.353 12.9399C11.0982 13.4718 10.9634 14.0562 10.9634 14.648C10.9559 15.7044 11.3829 16.7307 12.1321 17.4724C12.2669 17.6073 12.2969 17.8095 12.207 17.9744C12.1171 18.1392 11.9298 18.2291 11.7425 18.1841C11.4653 18.1242 11.1881 18.0343 10.9334 17.9069C11.0458 19.3828 11.9073 20.6414 13.2184 21.2483C13.3982 21.3307 13.4956 21.5255 13.4581 21.7202C13.4132 21.915 13.2409 22.0499 13.0461 22.0499C12.8705 22.0499 12.6949 22.0338 12.5217 22.0049C13.0386 23.2411 14.1399 24.1326 15.4809 24.3648C15.6532 24.3948 15.7881 24.5222 15.8255 24.6945C15.863 24.8668 15.7881 25.0391 15.6457 25.1365C14.1783 26.1252 12.4808 26.5674 10.7236 26.5674C12.4264 27.4901 14.3288 27.9684 16.2601 27.9684Z" fill="#EAEEF4"/>

</svg>
